# xmcd
#
# Track frame offsets: 
#        150
#        1163
#        23438
#        41739
#        49388
#        55732
#        57338
#        68787
#        72426
#        74940
#        80957
#        87571
#        109496
#        116327
#        123475
#        132527
#        138835
#        147770
#        148662
#        151947
#        179030
#        220807
#        248566
#        293793
#        307278
#        315549
#        321345
#        329049
#        335072
#        351338
#
# Disc length: 4728 seconds
#
# Revision: 0
# Processed by: cddbd v1.5.2PL0 Copyright (c) Steve Scherf et al.
# Submitted via: ExactAudioCopy v0.95b4
#
DISCID=ed12761e
DTITLE=The Beatles  - AB  Road - Complete Purple Chick Set v1.1 Jan.07
DTITLE=Various Artist - D1  FLAC
DYEAR=1900
DGENRE=
TTITLE0=Roll Announcement
TTITLE1=The Long And Winding Road 7.01
TTITLE2=Golden Slumbers - Carry That Weight 7.02
TTITLE3=The Long And Winding Road 7.03
TTITLE4=The Palace Of The King Of The Birds 7.04
TTITLE5=The Palace Of The King Of The Birds 7.05
TTITLE6=Lady Madonna 7.06
TTITLE7=Instrumental 7.07
TTITLE8=She Came In Through The Bathroom Window 7.08
TTITLE9=Unknown 7.09
TTITLE10=Instrumental 7.10
TTITLE11=Instrumental 7.11
TTITLE12=Instrumental 7.12
TTITLE13=Mister Epstein Said It Was White Gold 7.13
TTITLE14=Lowdown Blues Machine 7.14
TTITLE15=Wha'd I Say - Carry That Weight - Shout! 7.15
TTITLE16=Get Back 7.16
TTITLE17=Get Back 7.17
TTITLE18=Dialogue
TTITLE19=Get Back 7.18
TTITLE20=Get Back 7.19
TTITLE21=Dialugue
TTITLE22=My Back Pages 7.20
TTITLE23=Dialogue
TTITLE24=I've Got A Feeling 7.21
TTITLE25=She Came In Through The Bathroom Window 7.22
TTITLE26=Stuck Inside Of Mobile With The Memphis Blues Again 7.23
TTITLE27=Improvisation 7.24
TTITLE28=I Shall Be Released 7.25
TTITLE29=To Kingdom Come 7.26
EXTD=
EXTT0=
EXTT1=
EXTT2=
EXTT3=
EXTT4=
EXTT5=
EXTT6=
EXTT7=
EXTT8=
EXTT9=
EXTT10=
EXTT11=
EXTT12=
EXTT13=
EXTT14=
EXTT15=
EXTT16=
EXTT17=
EXTT18=
EXTT19=
EXTT20=
EXTT21=
EXTT22=
EXTT23=
EXTT24=
EXTT25=
EXTT26=
EXTT27=
EXTT28=
EXTT29=
PLAYORDER=
